<svg id="Layer_1" data-name="Layer 1" xmlns="http://www.w3.org/2000/svg" viewBox="0 0 1163.79 1169.03"><defs><style>.cls-1{fill:#c5e9f7;}</style></defs><title>whatsapp-icon-gray</title><path class="cls-1" d="M994.22,169.89C884.83,60.4,739.34.07,584.33,0,264.92,0,5,259.85,4.85,579.25a578.13,578.13,0,0,0,77.36,289.6L0,1169l307.19-80.55a579.17,579.17,0,0,0,276.9,70.5h.25c319.35,0,579.32-259.87,579.45-579.28C1163.85,424.92,1103.63,279.38,994.22,169.89ZM878.07,793.51c-12.5,35-73.74,68.8-101.24,71.3s-53.27,12.44-180-37.52c-152.45-60.12-248.7-216.38-256.2-226.38s-61.25-81.33-61.25-155.12,38.76-110.07,52.5-125.08,30-18.76,40-18.76,20,0,28.74.35c10.69.44,22.51.94,33.75,25.91h0c13.33,29.66,42.48,103.83,46.23,111.33s6.25,16.25,1.25,26.27-7.5,16.25-15,25-15.77,19.54-22.5,26.26c-7.53,7.48-15.34,15.6-6.59,30.6s38.85,64.11,83.44,103.86c57.31,51.1,105.61,66.92,120.61,74.44s23.75,6.25,32.5-3.77,37.48-43.78,47.48-58.78,20-12.51,33.75-7.51,87.48,41.29,102.48,48.79,25,11.25,28.75,17.5S890.57,758.49,878.07,793.51Z" transform="translate(0)"/></svg>