<svg xmlns="http://www.w3.org/2000/svg" xmlns:xlink="http://www.w3.org/1999/xlink" width="1163.789" height="1169.032" viewBox="0 0 1163.789 1169.032"><defs><linearGradient id="a" x1="0.5" y1="1" x2="0.5" gradientUnits="objectBoundingBox"><stop offset="0" stop-color="#20b038"/><stop offset="1" stop-color="#60d66a"/></linearGradient></defs><g transform="translate(-27.875 -21.082)"><path d="M27.875,1190.114l82.211-300.18a578.178,578.178,0,0,1-77.359-289.6C32.86,280.934,292.8,21.082,612.2,21.082c155.016.07,300.508,60.4,409.9,169.891C1131.508,300.465,1191.727,446,1191.664,600.785c-.133,319.406-260.094,579.281-579.445,579.281h-.258a579.3,579.3,0,0,1-276.9-70.5L27.875,1190.114Z" fill="url(#a)"/><path d="M462.273,349.294c-11.234-24.977-23.062-25.477-33.75-25.914-8.742-.375-18.75-.352-28.742-.352s-26.25,3.758-39.992,18.766-52.5,51.289-52.5,125.078,53.75,145.1,61.242,155.117c7.5,10,103.758,166.266,256.2,226.383,126.7,49.961,152.477,40.023,179.977,37.523s88.734-36.273,101.234-71.3,12.5-65.031,8.75-71.3c-3.75-6.25-13.75-10-28.75-17.5S797.211,682,783.461,677s-23.75-7.5-33.75,7.516c-10,15-38.727,48.773-47.477,58.773-8.75,10.023-17.5,11.273-32.5,3.773-15-7.523-63.3-23.344-120.609-74.438-44.586-39.75-74.688-88.844-83.438-103.859-8.75-15-.938-23.125,6.586-30.6,6.734-6.719,15-17.508,22.5-26.266,7.484-8.758,9.984-15.008,14.984-25.008,5-10.016,2.5-18.773-1.25-26.273s-32.9-81.67-46.234-111.326Z" fill="#fff" fill-rule="evenodd"/></g></svg>